Coordinates
version=1
nRows=21
nColumns=27
inDegrees=yes

Units are S.I. units (second, meters, Newtons, ...)
If the header above contains a line with 'inDegrees', this indicates whether rotational values are in degrees (yes) or radians (no).

endheader
time	pelvis_rotation	pelvis_tilt	pelvis_list	pelvis_tx	pelvis_ty	pelvis_tz	hip_flexion_r	hip_adduction_r	hip_rotation_r	knee_angle_r	knee_rotation_r	knee_adduction_r	knee_angle_r_beta	ankle_angle_r	subtalar_angle_r	mtp_angle_r	hip_flexion_l	hip_adduction_l	hip_rotation_l	knee_angle_l	knee_rotation_l	knee_adduction_l	knee_angle_l_beta	ankle_angle_l	subtalar_angle_l	mtp_angle_l
      4.19000000	      8.48793523	    -25.04244871	      6.15739475	     -0.01332960	      0.65226132	     -1.15001961	     85.46139964	    -45.98188415	      1.91614512	     76.99043226	      0.00000000	      9.90363822	      1.34373654	     10.87312135	      0.00000000	      0.00000000	     82.85982416	    -26.52989093	     -0.68114659	     70.98553744	      0.00000000	     -9.91019987	      1.23893135	      7.84223625	      0.00000000	      0.00000000
      4.19500000	      8.50926961	    -25.08755824	      6.14851537	     -0.01356512	      0.65069633	     -1.14996329	     85.80179505	    -46.03023964	      2.12791452	     77.27301975	      0.00000000	      9.90446743	      1.34866862	     10.98287874	      0.00000000	      0.00000000	     83.18523848	    -26.62078428	     -0.59283335	     71.27351428	      0.00000000	     -9.91145939	      1.24395749	      7.83342761	      0.00000000	      0.00000000
      4.20000000	      8.90641428	    -24.91429544	      5.63753180	     -0.01322533	      0.64956887	     -1.14982678	     84.90584884	    -46.46989041	      1.05509144	     77.37760832	      0.00000000	      9.90568608	      1.35049403	     11.10592467	      0.00000000	      0.00000000	     83.69426661	    -26.37833240	      0.33593194	     71.57418224	      0.00000000	     -9.91237645	      1.24920514	      7.90020302	      0.00000000	      0.00000000
      4.20500000	      8.59923219	    -25.15174490	      6.05769034	     -0.01397451	      0.64762187	     -1.14983774	     86.34374781	    -46.18323491	      2.38562157	     77.82026141	      0.00000000	      9.90608311	      1.35821979	     11.09986256	      0.00000000	      0.00000000	     83.87026732	    -26.75225053	     -0.28149207	     71.85817266	      0.00000000	     -9.91357345	      1.25416171	      7.89811612	      0.00000000	      0.00000000
      4.21000000	      8.62181126	    -25.17896505	      6.03319005	     -0.01418275	      0.64607437	     -1.14979033	     86.65473799	    -46.23906015	      2.56529974	     78.09978463	      0.00000000	      9.90682460	      1.36309839	     11.15424826	      0.00000000	      0.00000000	     84.19320088	    -26.84067529	     -0.17580783	     72.15969887	      0.00000000	     -9.91468128	      1.25942433	      7.92170229	      0.00000000	      0.00000000
      4.21500000	      8.64451668	    -25.21383148	      6.05639413	     -0.01438704	      0.64457431	     -1.14970012	     87.02663522	    -46.28272430	      2.83388964	     78.39276601	      0.00000000	      9.90745983	      1.36821188	     11.23405574	      0.00000000	      0.00000000	     84.46624556	    -26.91285645	     -0.11557218	     72.41675821	      0.00000000	     -9.91565598	      1.26391086	      7.96818151	      0.00000000	      0.00000000
      4.22000000	      8.99151213	    -25.09854660	      5.33882412	     -0.01405741	      0.64363367	     -1.14939858	     85.90605948	    -46.65269352	      1.41894408	     78.42522434	      0.00000000	      9.90830268	      1.36877838	     11.32154420	      0.00000000	      0.00000000	     85.14781019	    -26.73432022	      1.01966281	     72.71437033	      0.00000000	     -9.91633667	      1.26910518	      7.91789953	      0.00000000	      0.00000000
      4.22500000	      8.73056415	    -25.29301886	      6.02421079	     -0.01476297	      0.64158258	     -1.14953241	     87.64889360	    -46.42394379	      3.16943028	     78.94223057	      0.00000000	      9.90895383	      1.37780184	     11.35725833	      0.00000000	      0.00000000	     85.11919699	    -27.04127060	      0.10848430	     72.97496650	      0.00000000	     -9.91746134	      1.27365344	      7.96669006	      0.00000000	      0.00000000
      4.23000000	      8.71873726	    -25.36302278	      6.00457157	     -0.01500601	      0.64009071	     -1.14943407	     88.02605833	    -46.42671248	      3.39730424	     79.21749085	      0.00000000	      9.90937730	      1.38260604	     11.39506904	      0.00000000	      0.00000000	     85.45339139	    -27.15270020	      0.20398482	     73.24986197	      0.00000000	     -9.91833845	      1.27845127	      8.00340469	      0.00000000	      0.00000000
      4.23500000	      8.79490456	    -25.38883547	      6.02289426	     -0.01514541	      0.63860496	     -1.14937192	     88.35327026	    -46.53599233	      3.60346235	     79.49587334	      0.00000000	      9.91012240	      1.38746473	     11.45819643	      0.00000000	      0.00000000	     85.74477704	    -27.17541966	      0.29769047	     73.51543540	      0.00000000	     -9.91909620	      1.28308640	      8.02551797	      0.00000000	      0.00000000
      4.24000000	      8.81798759	    -25.44736807	      6.01355287	     -0.01533263	      0.63711198	     -1.14927111	     88.70378512	    -46.57452379	      3.81290633	     79.77363448	      0.00000000	      9.91065811	      1.39231258	     11.52634777	      0.00000000	      0.00000000	     86.07454876	    -27.25642763	      0.39657705	     73.78749725	      0.00000000	     -9.91994156	      1.28783477	      8.03922801	      0.00000000	      0.00000000
      4.24500000	      8.86117111	    -25.48303294	      5.91973983	     -0.01541844	      0.63567415	     -1.14908824	     88.88211831	    -46.64501031	      3.83283617	     80.03016367	      0.00000000	      9.91135828	      1.39678986	     11.65117391	      0.00000000	      0.00000000	     86.43301130	    -27.33219221	      0.60784866	     74.04845285	      0.00000000	     -9.92081337	      1.29238931	      8.02526055	      0.00000000	      0.00000000
      4.25000000	      8.87200548	    -25.54324506	      5.97272972	     -0.01563666	      0.63412351	     -1.14904904	     89.34694059	    -46.66874837	      4.18106367	     80.32495329	      0.00000000	      9.91179011	      1.40193491	     11.66001032	      0.00000000	      0.00000000	     86.72383680	    -27.41232614	      0.62923766	     74.32735609	      0.00000000	     -9.92158436	      1.29725709	      8.08688368	      0.00000000	      0.00000000
      4.25500000	      9.11354748	    -25.48271228	      5.23939349	     -0.01530259	      0.63303822	     -1.14861637	     88.35403843	    -46.94764334	      2.87181361	     80.42322346	      0.00000000	      9.91243480	      1.40365004	     11.81693122	      0.00000000	      0.00000000	     87.46018050	    -27.32508004	      1.73871611	     74.63959672	      0.00000000	     -9.92243884	      1.30270672	      8.03851436	      0.00000000	      0.00000000
      4.26000000	      8.93618787	    -25.61832413	      5.97225761	     -0.01594125	      0.63106735	     -1.14885842	     90.03403101	    -46.77656986	      4.62205057	     80.88808397	      0.00000000	      9.91298480	      1.41176339	     11.78949621	      0.00000000	      0.00000000	     87.33670315	    -27.54260976	      0.83438656	     74.87120139	      0.00000000	     -9.92309855	      1.30674898	      8.13253787	      0.00000000	      0.00000000
      4.26500000	      8.98815570	    -25.62928695	      5.95562411	     -0.01604257	      0.62953932	     -1.14876670	     90.31293689	    -46.86296253	      4.79307134	     81.16450956	      0.00000000	      9.91364286	      1.41658793	     11.86101706	      0.00000000	      0.00000000	     87.62763267	    -27.58153038	      0.97360216	     75.13857630	      0.00000000	     -9.92379846	      1.31141555	      8.17699564	      0.00000000	      0.00000000
      4.27000000	      8.98329066	    -25.64252668	      5.96478914	     -0.01618326	      0.62793944	     -1.14865358	     90.67224269	    -46.87124865	      5.07140814	     81.45997157	      0.00000000	      9.91415052	      1.42174471	     11.94751512	      0.00000000	      0.00000000	     87.89957287	    -27.68867266	      1.04402380	     75.41975434	      0.00000000	     -9.92459457	      1.31632303	      8.18868429	      0.00000000	      0.00000000
      4.27500000	      8.99352941	    -25.66004668	      5.93489509	     -0.01630831	      0.62634571	     -1.14853821	     90.97148582	    -46.91087653	      5.25825785	     81.74277322	      0.00000000	      9.91472670	      1.42668053	     11.97547827	      0.00000000	      0.00000000	     88.20438153	    -27.77449669	      1.18029922	     75.70195946	      0.00000000	     -9.92536035	      1.32124844	      8.23228985	      0.00000000	      0.00000000
      4.28000000	      8.99484897	    -25.67042812	      5.92356372	     -0.01646771	      0.62467617	     -1.14842090	     91.31225838	    -46.92979809	      5.51116546	     82.04197028	      0.00000000	      9.91526395	      1.43190251	     12.07112879	      0.00000000	      0.00000000	     88.49826132	    -27.86010801	      1.30302276	     75.99003599	      0.00000000	     -9.92606077	      1.32627633	      8.25478761	      0.00000000	      0.00000000
      4.28500000	      9.02788317	    -25.67546391	      5.90191999	     -0.01659327	      0.62300110	     -1.14833714	     91.61626415	    -46.99314448	      5.71442646	     82.34063469	      0.00000000	      9.91584549	      1.43711518	     12.15522449	      0.00000000	      0.00000000	     88.80555851	    -27.90663923	      1.46293996	     76.28588916	      0.00000000	     -9.92676133	      1.33143994	      8.29208984	      0.00000000	      0.00000000
      4.29000000	      9.04373681	    -25.67700832	      5.88591552	     -0.01671407	      0.62127723	     -1.14823197	     91.93682818	    -47.03108391	      5.95240596	     82.64693416	      0.00000000	      9.91639984	      1.44246112	     12.24966148	      0.00000000	      0.00000000	     89.10651052	    -27.97992533	      1.60073461	     76.58463344	      0.00000000	     -9.92746215	      1.33665401	      8.32402234	      0.00000000	      0.00000000
